<?xml version="1.0" encoding="utf-8"?>
<!-- Generator: Adobe Illustrator 26.0.0, SVG Export Plug-In . SVG Version: 6.00 Build 0)  -->
<svg version="1.1" id="Слой_1" xmlns="http://www.w3.org/2000/svg" xmlns:xlink="http://www.w3.org/1999/xlink" x="0px" y="0px"
	 viewBox="0 0 500 500" style="enable-background:new 0 0 500 500;" xml:space="preserve">
<style type="text/css">
	.st0{fill:#FFFFFF;}
</style>
<g>
	<path d="M194.07,396.21c0-16.54,0-32.11,0-48.71c-3.2,0-6.08,0-8.95,0c-38.17,0-76.34,0.01-114.51-0.01
		c-19.19-0.01-28.59-9.26-28.59-28.19c-0.02-78.78-0.02-157.55,0-236.33C42.02,64.47,51.48,55.01,70,55
		c119.92-0.02,239.85-0.02,359.77,0c18.96,0,28.22,9.38,28.22,28.56c0.02,78.5,0.02,157.01,0,235.51c0,19.05-9.35,28.37-28.37,28.42
		c-6.71,0.02-13.43,0-21.16,0c0,13.1,0,25.46,0,37.82c0,10.02,0.21,20.04-0.08,30.05c-0.53,18.41-12.03,29.54-30.47,29.6
		c-27.34,0.09-54.68,0.03-82.02,0.02c-19.31,0-27.3-5.62-34.03-24.37c-27.09,0-54.4,0-81.71,0c-2.71,0-5.44,0.18-8.12-0.11
		c-6.84-0.74-11.8-6.1-11.31-12.51c0.52-6.86,4.54-10.87,11.33-11.66c3.47-0.4,7.03-0.12,10.55-0.13
		C186.11,396.2,189.61,396.21,194.07,396.21z M433.39,80c-122.71,0-244.65,0-366.55,0c0,64.94,0,129.28,0,193.72
		c65.22,0,130,0,194.64,0c0.28-1.15,0.52-1.67,0.52-2.2c0.07-12.73,0.06-25.45,0.17-38.18c0.19-21.06,11.22-32.08,32.11-32.11
		c26.54-0.03,53.08-0.01,79.61-0.01c24.27,0,34.51,10.23,34.56,34.55c0.03,12.62,0,25.25,0,37.92c9.03,0,16.95,0,24.94,0
		C433.39,208.89,433.39,144.75,433.39,80z M287.29,274.66c0,32.72,0,64.69,0,96.67c32.48,0,64.27,0,96.02,0c0-32.49,0-64.46,0-96.67
		C351.06,274.66,319.5,274.66,287.29,274.66z M261.88,299.34c-65.5,0-130.28,0-195.05,0c0,8.06,0,15.54,0,23.17
		c65.2,0,129.99,0,195.05,0C261.88,314.66,261.88,307.39,261.88,299.34z M384.01,249.61c0-4.93,0.01-8.96,0-13
		c-0.04-10.95-0.04-10.96-10.62-10.97c-22.15-0.01-44.3,0-66.44,0c-21.5,0-21.51,0-20.19,21.49c0.05,0.74,0.49,1.45,0.86,2.48
		C319.42,249.61,351.18,249.61,384.01,249.61z M383.44,396.85c-32.41,0-64.36,0-96.84,0c0,5.18,0.34,9.78-0.08,14.32
		c-0.68,7.52,2.41,9.72,9.83,9.57c22.41-0.45,44.83-0.16,67.25-0.16C385.75,420.58,385.75,420.58,383.44,396.85z M219.21,395.57
		c14.73,0,28.59,0,42.45,0c0-16.19,0-31.74,0-47.58c-14.37,0-28.25,0-42.45,0C219.21,364.04,219.21,379.6,219.21,395.57z
		 M408.95,322.42c8.6,0,16.51,0,24.15,0c0-8.15,0-15.62,0-23.27c-8.22,0-15.94,0-24.15,0C408.95,307,408.95,314.46,408.95,322.42z"
		/>
	<path class="st0" d="M408.95,322.42c0-7.95,0-15.41,0-23.27c8.21,0,15.94,0,24.15,0c0,7.65,0,15.12,0,23.27
		C425.46,322.42,417.55,322.42,408.95,322.42z"/>
</g>
</svg>
