<?xml version="1.0" encoding="utf-8"?>
<!-- Generator: Adobe Illustrator 26.0.0, SVG Export Plug-In . SVG Version: 6.00 Build 0)  -->
<svg version="1.1" id="Слой_1" xmlns="http://www.w3.org/2000/svg" xmlns:xlink="http://www.w3.org/1999/xlink" x="0px" y="0px"
	 viewBox="0 0 500 500" style="enable-background:new 0 0 500 500;" xml:space="preserve">
<style type="text/css">
	.st0{fill:#FFFFFF;}
</style>
<g>
	<g>
		<path d="M418.05,66.79c3.12,0.34,5.79,0.54,8.42,0.94c19.05,2.88,32.24,16.96,32.31,36.32c0.27,77.54,0.31,155.09-0.01,232.63
			c-0.09,21.69-16.25,36.59-38.57,36.68c-42.68,0.17-85.36,0.05-128.04,0.06c-3.27,0-6.55,0-11.2,0
			c3.45,14.4,6.57,27.99,10.14,41.46c0.4,1.49,3.28,2.99,5.19,3.27c3.53,0.53,7.19,0.16,10.8,0.17c24.61,0.01,33.18,7.72,35.36,32.8
			c8.22,0,16.55,0.13,24.87-0.04c6.6-0.14,11.88,2.06,11.78,9.21c-0.1,7.16-5.54,8.96-12.05,8.95c-78.15-0.08-156.29-0.07-234.44,0
			c-6.57,0.01-11.91-1.98-11.87-9.13c0.04-7.15,5.42-9.18,11.97-9.03c8.07,0.19,16.14,0.05,24.92,0.05
			c-0.19-12.95,2.9-25.13,15.22-29.39c10.72-3.7,22.84-3.35,35.67-4.96c3.18-13.25,6.66-27.72,10.41-43.35c-4.08,0-7.29,0-10.51,0
			c-42.08,0-84.16,0.04-126.23-0.01c-26.5-0.03-41.24-14.82-41.26-41.4c-0.04-73.94-0.02-147.87-0.01-221.81
			C40.95,81.7,55.2,67.34,83.47,67.34c76.04-0.02,152.08-0.15,228.12,0.21c8.01,0.04,12.55-2.46,16.54-9.1
			c6.49-10.8,13.81-21.11,20.93-31.52c12.72-18.59,33.31-24.59,51.84-15.26c18.78,9.46,26.04,30,18.24,51.55
			C418.78,64.26,418.5,65.33,418.05,66.79z M440.06,276.38c0.36-2.08,0.72-3.21,0.73-4.35c0.04-55.6,0.09-111.2,0-166.79
			c-0.01-8.93-3.79-16.78-12.87-18.32c-10.03-1.7-21.32-6.3-29.95,4.22c-24.58,29.97-49.25,59.86-73.56,90.05
			c-2.19,2.72-3.3,7.58-2.69,11.06c5.64,32.13-14.05,55.85-46.7,55.64c-5.71-0.04-11.41-0.35-17.12-0.47
			c-10.85-0.23-20.65,2.34-29.28,9.48c-7.16,5.92-14.41,3.69-16.06-5.44c-2.6-14.41-5.48-29.08-5.37-43.62
			c0.22-29.31,15.18-51.82,41.19-56.12c18.48-3.05,26.97-13.36,35.34-26.99c6.59-10.74,13.96-21.01,20.91-31.53
			c1.4-2.12,2.52-4.43,4.41-7.79c-4.01,0-6.63,0-9.25,0c-72.13,0-144.25-0.01-216.38,0.01c-18.02,0-24.37,6.36-24.38,24.39
			c-0.02,52.29-0.01,104.58,0.01,156.88c0,2.92,0.25,5.85,0.43,9.72c8.29,0,16.03-0.09,23.77,0.03c5.79,0.09,10.21,2.48,10.31,8.85
			c0.1,6.89-4.36,9.26-10.7,9.18c-7.69-0.09-15.39-0.02-22.59-0.02c-0.67,1.85-1.04,2.39-1.05,2.94
			c-0.09,10.82-0.17,21.63-0.18,32.45c-0.01,19.47,5.91,25.49,25.1,25.49c110.59,0.01,221.19,0.01,331.78,0
			c2.7,0,5.45,0.19,8.1-0.22c8.14-1.26,15.14-5.56,15.71-13.83c1.06-15.37,0.3-30.86,0.3-46.81c-4.3,0-7.88,0-11.47,0
			c-87.45,0-174.91,0-262.36,0c-2.7,0-5.41-0.02-8.11-0.02c-5.65,0-9.43-2.62-9.7-8.38c-0.3-6.27,3.65-9.18,9.56-9.6
			c2.69-0.19,5.41-0.07,8.11-0.07c87.75,0,175.51,0,263.26,0C432.83,276.38,436.34,276.38,440.06,276.38z M312.25,114.26
			c9.21,6.84,17.81,13.22,27.01,20.05c20.78-25.45,41.52-50.28,61.54-75.68c7.14-9.05,4.21-22-4.85-28.82
			c-9.11-6.85-22.3-6-28.97,3.53C348.45,59.84,330.7,86.87,312.25,114.26z M226.9,232.17c16.92-0.84,32.62-1.62,48.31-2.4
			c3-0.15,6.04-0.05,8.99-0.53c10.32-1.7,16.49-8.27,19.34-17.89c3.27-11.04,0.28-19.79-8.22-26.12
			c-7.23-5.38-14.39-10.85-21.76-16.03c-2.09-1.47-4.75-2.74-7.23-2.9c-16.81-1.13-32.75,9.75-38.23,25.88
			C223.4,205.99,224.42,219.93,226.9,232.17z M176.41,450.67c49.44,0,98.22,0,146.97,0c0.53-11.52-1.71-14.22-12.18-14.24
			c-40.77-0.07-81.55-0.07-122.32,0C178.3,436.44,176.09,439,176.41,450.67z M272.83,417.84c-3.73-15.6-7.15-29.92-10.53-44.06
			c-8.8,0-16.51,0-24.82,0c-3.42,14.58-6.78,28.95-10.32,44.06C242.73,417.84,256.96,417.84,272.83,417.84z M327.69,148.31
			c-8.54-6.34-16.62-12.35-25.39-18.86c-5.84,8.68-11.29,16.77-17.25,25.61c7.81,5.79,15.17,11.25,23.02,17.07
			C314.71,164.08,320.92,156.54,327.69,148.31z"/>
		<path class="st0" d="M312.25,114.26c18.45-27.4,36.2-54.43,54.73-80.91c6.67-9.53,19.86-10.38,28.97-3.53
			c9.06,6.81,11.99,19.76,4.85,28.82c-20.02,25.4-40.77,50.24-61.54,75.68C330.05,127.48,321.46,121.11,312.25,114.26z"/>
		<path class="st0" d="M226.9,232.17c-2.49-12.24-3.5-26.18,1.19-40c5.48-16.13,21.42-27.01,38.23-25.88
			c2.48,0.17,5.15,1.44,7.23,2.9c7.37,5.18,14.53,10.65,21.76,16.03c8.5,6.33,11.49,15.08,8.22,26.12
			c-2.85,9.62-9.02,16.19-19.34,17.89c-2.95,0.48-5.99,0.38-8.99,0.53C259.52,230.55,243.82,231.33,226.9,232.17z"/>
		<path class="st0" d="M176.41,450.67c-0.32-11.67,1.89-14.22,12.47-14.24c40.77-0.06,81.55-0.07,122.32,0
			c10.47,0.02,12.71,2.72,12.18,14.24C274.63,450.67,225.85,450.67,176.41,450.67z"/>
		<path class="st0" d="M272.83,417.84c-15.87,0-30.1,0-45.67,0c3.54-15.11,6.91-29.48,10.32-44.06c8.31,0,16.01,0,24.82,0
			C265.67,387.91,269.1,402.23,272.83,417.84z"/>
		<path class="st0" d="M327.69,148.31c-6.77,8.22-12.98,15.77-19.62,23.82c-7.85-5.82-15.21-11.28-23.02-17.07
			c5.95-8.84,11.4-16.94,17.25-25.61C311.07,135.97,319.15,141.97,327.69,148.31z"/>
	</g>
</g>
</svg>
