<?xml version="1.0" encoding="utf-8"?>
<!-- Generator: Adobe Illustrator 26.0.0, SVG Export Plug-In . SVG Version: 6.00 Build 0)  -->
<svg version="1.1" id="Слой_1" xmlns="http://www.w3.org/2000/svg" xmlns:xlink="http://www.w3.org/1999/xlink" x="0px" y="0px"
	 viewBox="0 0 500 500" style="enable-background:new 0 0 500 500;" xml:space="preserve">
<g>
	<path d="M250.22,308.04c-11.3,1.48-22.69,2.46-33.88,4.55c-16.11,3.02-30.05,10.41-42.64,21.23
		c-13.94,11.99-28.51,23.39-43.72,33.69c-8.19,5.55-17.97,9.53-27.61,12c-21.37,5.47-37.9-3.92-45.58-24.69
		c-6.54-17.66-7.01-36.2-5.93-54.62c2.3-39.35,9.54-77.82,24.99-114.27c5.02-11.85,11.59-23.25,18.85-33.9
		c19.05-27.93,45.71-37.82,78.67-30.64c17.74,3.86,35.5,7.65,53.11,12.07c17.65,4.43,34.95,3.14,52.38-1.05
		c17.65-4.24,35.31-8.52,53.13-11.94c30.46-5.84,54.34,5.18,72.72,29.64c15.9,21.17,24.83,45.43,31.62,70.58
		c9.93,36.8,16.09,74.08,11.93,112.38c-0.7,6.4-1.95,12.88-3.96,18.98c-8.16,24.66-26.47,34-51.26,26.26
		c-22.9-7.15-41.82-21.26-58.49-37.58C310.77,317.48,282.5,308.7,250.22,308.04z M68.56,316.41c1.15,6.72,2.34,19.68,5.76,32.03
		c3.28,11.85,12.93,17.04,24.36,12.43c13.29-5.36,26.2-12.35,38.03-20.45c13.22-9.05,24.27-21.35,37.65-30.1
		c28.15-18.41,60.03-21.74,92.77-19.04c30.61,2.52,56.8,14.32,78.82,36.27c9.46,9.42,21,16.91,32.17,24.41
		c6.15,4.13,13.25,7.24,20.34,9.47c14.82,4.68,23.48,0.08,28.03-14.82c2.25-7.37,3.81-15.16,4.24-22.83
		c1.84-32.98-3.47-65.17-11.8-96.95c-5.89-22.45-13.76-44.07-27.45-63.12c-14.54-20.23-34.01-29.25-58.8-24.61
		c-16.04,3-32.02,6.48-47.83,10.55c-23.41,6.02-46.55,6.08-69.94-0.14c-15.27-4.07-30.73-7.51-46.25-10.5
		c-24.64-4.75-44.46,3.54-59.14,23.79c-3.94,5.44-7.65,11.17-10.61,17.18C78.68,220.98,70.77,264.85,68.56,316.41z"/>
	<path d="M212.75,224.2c-0.1,12.73-8.72,23.65-21.27,27.65c-2.17,0.69-4.71,2.85-5.48,4.93c-5.32,14.32-15.32,22.18-28.78,22.01
		c-13.14-0.16-22.72-7.99-27.79-22.01c-0.76-2.09-3.44-4.23-5.68-4.93c-13.02-4.06-21.65-14.97-21.7-28.13
		c-0.05-12.73,8.22-24.01,21.11-27.59c4.07-1.13,5.79-2.79,6.99-6.79c3.85-12.86,14.84-20.64,27.96-20.53
		c12.66,0.1,23.25,7.86,27.12,20.58c1.19,3.9,2.74,5.64,6.85,6.84C204.87,199.96,212.85,211.33,212.75,224.2z M194.84,223.71
		c-0.03-6.29-4.22-9.96-11.97-10.45c-13.25-0.84-13.96-1.56-14.94-15.15c-0.07-1.03-0.16-2.07-0.33-3.09
		c-0.94-5.37-4.39-8.29-9.6-8.44c-5.59-0.16-9.31,2.92-10.5,8.45c-0.48,2.24-0.27,4.65-0.25,6.97c0.07,7.36-3.66,10.97-10.89,11.21
		c-1.81,0.06-3.65-0.03-5.43,0.21c-6.03,0.82-10.5,3.5-10.26,10.34c0.23,6.68,4.5,9.35,10.72,9.86c14.8,1.21,15,1.45,15.87,15.75
		c0.41,6.79,4.55,11.43,10.44,11.08c6.33-0.38,9.73-3.9,10.25-10.43c1.17-14.63,1.26-14.62,15.83-15.76
		C190.72,233.72,194.87,229.76,194.84,223.71z"/>
	<path d="M336.8,241.87c9.64,0.08,17.33,7.83,17.21,17.37c-0.11,9.39-8.21,17.34-17.56,17.23c-9.36-0.11-17.35-8.26-17.24-17.58
		C319.33,249.35,327.13,241.79,336.8,241.87z"/>
	<path d="M354.03,188.74c-0.17,9.42-8.29,17.28-17.67,17.11c-9.41-0.17-17.31-8.32-17.14-17.66c0.18-9.36,8.38-17.32,17.68-17.14
		C346.28,171.23,354.2,179.41,354.03,188.74z"/>
	<path d="M301.12,240.96c-9.73-0.09-17.08-7.64-16.96-17.43c0.11-9.64,7.82-17.2,17.42-17.08c9.51,0.12,17.23,8.03,17.1,17.53
		C318.56,233.52,310.77,241.06,301.12,240.96z"/>
	<path d="M389.1,223.63c0.06,9.78-7.32,17.28-17.07,17.34c-9.66,0.05-17.38-7.5-17.45-17.08c-0.07-9.53,7.65-17.36,17.19-17.43
		C381.36,206.37,389.04,213.98,389.1,223.63z"/>
</g>
</svg>
