<?xml version="1.0" encoding="utf-8"?>
<!-- Generator: Adobe Illustrator 26.0.0, SVG Export Plug-In . SVG Version: 6.00 Build 0)  -->
<svg version="1.1" id="Слой_1" xmlns="http://www.w3.org/2000/svg" xmlns:xlink="http://www.w3.org/1999/xlink" x="0px" y="0px"
	 viewBox="0 0 500 500" style="enable-background:new 0 0 500 500;" xml:space="preserve">
<style type="text/css">
	.st0{fill:#FFFFFF;}
</style>
<g>
	<path d="M239.52,302.71c-20.01,20.04-39.16,39.09-58.05,58.39c-1.62,1.66-2.41,5.06-2.15,7.5c4.56,41.72-26.12,78.36-67.17,79.96
		c-41.98,1.64-75.6-32.01-74.11-74.15c1.42-40,38.49-71.62,78.57-67.2c2.76,0.3,6.67,0.05,8.39-1.63
		c19.5-19.05,38.68-38.43,58.56-58.33c-2.07-2.19-3.94-4.26-5.9-6.22c-16.5-16.52-33.09-32.94-49.47-49.58
		c-3.53-3.58-6.67-5.14-12.19-4.54c-38.72,4.19-73.44-23.99-77.59-62.73c-0.49-4.52,0.02-9.57,1.61-13.8
		c2.5-6.64,9.82-8.61,17.39-4.89c7.75,3.8,15.06,8.48,22.66,12.6c7.73,4.2,20.04-3.08,20.92-11.88c0.85-8.39-0.92-14.62-9.66-18.04
		c-5.31-2.07-10.65-4.94-14.86-8.7c-3.99-3.57-8.4-8.45-9.25-13.34c-1.13-6.53,4.9-10.32,10.53-13.16
		c38.16-19.27,85.89,1.13,98.45,42.48c2.18,7.16,2.97,14.91,3.23,22.43c0.25,7.14-1.95,14.29,5.4,19.79
		c1.46,1.09,0.95,7.59-0.86,9.46c-1.75,1.81-6.38,1.25-9.68,0.95c-1.5-0.13-2.83-2.13-3.54-2.7
		c-11.09,11.02-21.96,21.83-32.61,32.42c18.58,18.48,37.87,37.66,56.73,56.42c10.37-10.34,21.27-21.21,32.4-32.29
		c-3.07-4.24-10.31-8.66-3.56-15.28c6.35-6.23,10.71,0.33,17,5.25c3.25-3.79,6.38-7.93,10.01-11.6
		c14.93-15.11,29.94-30.16,45.1-45.04c3.22-3.17,4.53-6,3.96-10.87C295,83.65,326.65,47,367.32,45.71
		c42.03-1.33,75.42,32.53,73.61,74.64c-1.71,40.08-38.67,71.2-79,66.64c-2.38-0.27-5.79-0.43-7.17,0.93
		c-19.79,19.44-39.32,39.15-59.46,59.35c12.6,12.58,24.8,24.76,37.01,36.94c2.78,2.78,5.83,5.35,8.3,8.38
		c8.59,10.56,18.11,15.37,33.12,14.98c34.59-0.9,65.05,29.97,67.15,64.59c0.39,6.46,0.05,12.85-6.28,16.68
		c-6.03,3.65-11.64,1.07-17.02-1.94c-4.8-2.69-10.02-4.91-14.19-8.38c-7.82-6.51-14.36-3.4-21.16,1.38
		c-6.92,4.86-3.66,11.97-3.78,18.14c-0.04,1.77,2.95,4.03,5.01,5.33c5.98,3.77,12.74,6.5,18.16,10.91
		c4.33,3.53,9.14,8.54,10.15,13.61c1.36,6.88-5.09,10.79-10.95,13.68c-40.6,20.08-91.13-4.76-99.77-49.27
		c-1.28-6.62-2.24-13.73-1.18-20.26c1.11-6.82-1.5-10.58-5.81-14.83C275.95,339.39,258.1,321.33,239.52,302.71z M169.52,348.41
		c57-57.08,114.34-114.51,170.53-170.78c-10.2-10.29-20.99-21.16-31.34-31.6c-56.64,56.71-113.84,113.98-170.61,170.82
		C148.5,327.29,159.31,338.15,169.52,348.41z M54.1,121.54c4.69,31.36,28.27,51.46,57.5,49.75c4.93-0.29,10.58-2.95,14.32-6.29
		c9.97-8.88,18.52-19.39,28.69-27.98c8.65-7.3,10.16-15.98,8.98-26.01c-1.31-11.19-5.5-21.23-12.75-29.93
		c-15.68-18.82-44.8-25.32-64.34-13.85c4.76,2.8,9.06,5.8,13.73,8.01c17.54,8.31,19.71,19.18,14.64,40.48
		c-3.66,15.37-28.24,24.09-42.12,16.41C66.86,128.86,61.02,125.47,54.1,121.54z M392.74,427.17c-4.64-2.72-8.67-5.62-13.12-7.57
		c-13.64-5.98-18.34-16.14-17.53-30.83c1.25-22.67,25.62-37.08,45.3-25.95c5.51,3.12,11.05,6.2,17.25,9.68
		c-3.67-31.41-30.38-52.98-60.15-49.43c-3.58,0.43-7.55,2.4-10.2,4.87c-9.38,8.76-17.57,18.94-27.53,26.92
		c-12.49,10.01-13.29,22.11-10.03,35.92C324.53,423.83,363.24,442.8,392.74,427.17z M315.08,117.72
		c-0.74,6.37,1.93,12.22,7.64,17.52c10.74,9.97,20.68,20.81,31.39,30.83c2.81,2.63,7.07,4.7,10.87,5.12
		c30.38,3.33,58.34-20.58,60.17-51.01C427,89.15,403,62.44,372.37,61.47C340.86,60.46,315.03,85.28,315.08,117.72z M163.93,376.98
		c0.8-6.55-1.89-12.64-7.84-18.13c-10.58-9.76-20.3-20.46-30.84-30.26c-3-2.79-7.48-5.08-11.5-5.49
		c-30.22-3.1-57.74,20.34-59.87,50.49c-2.21,31.28,22.03,58.36,53.01,59.23C138.04,433.7,163.78,409.09,163.93,376.98z
		 M308.82,348.54c10.71-10.62,21.59-21.41,32.24-31.97c-18.79-18.76-38.02-37.96-56.77-56.67c-10.63,10.61-21.51,21.48-31.91,31.86
		C271.17,310.65,290.33,329.94,308.82,348.54z"/>
	<path d="M204,178.14c-3.7-5.03-7.78-8.22-7.35-10.59c0.56-3.11,4.33-7.29,7.35-7.92c4.54-0.94,8.24,2.91,7.28,7.79
		C210.67,170.52,207.53,173.14,204,178.14z"/>
	<path class="st0" d="M169.52,348.41c-10.21-10.26-21.02-21.12-31.42-31.56c56.77-56.84,113.97-114.11,170.61-170.82
		c10.36,10.44,21.14,21.31,31.34,31.6C283.86,233.9,226.52,291.33,169.52,348.41z"/>
	<path class="st0" d="M54.1,121.54c6.91,3.93,12.75,7.32,18.66,10.59c13.88,7.68,38.46-1.04,42.12-16.41
		c5.07-21.3,2.9-32.17-14.64-40.48c-4.67-2.21-8.98-5.21-13.73-8.01c19.53-11.47,48.66-4.97,64.34,13.85
		c7.25,8.7,11.44,18.75,12.75,29.93c1.17,10.03-0.34,18.71-8.98,26.01c-10.18,8.6-18.73,19.1-28.69,27.98
		c-3.74,3.33-9.39,6-14.32,6.29C82.37,173,58.79,152.9,54.1,121.54z"/>
	<path class="st0" d="M392.74,427.17c-29.5,15.63-68.21-3.35-76.01-36.38c-3.26-13.81-2.46-25.91,10.03-35.92
		c9.96-7.99,18.15-18.16,27.53-26.92c2.65-2.47,6.62-4.44,10.2-4.87c29.77-3.55,56.48,18.03,60.15,49.43
		c-6.21-3.48-11.74-6.56-17.25-9.68c-19.68-11.13-44.05,3.28-45.3,25.95c-0.81,14.68,3.89,24.85,17.53,30.83
		C384.06,421.55,388.09,424.46,392.74,427.17z"/>
	<path class="st0" d="M315.08,117.72c-0.04-32.44,25.79-57.26,57.29-56.25C403,62.44,427,89.15,425.14,120.19
		c-1.82,30.43-29.79,54.34-60.17,51.01c-3.8-0.42-8.06-2.49-10.87-5.12c-10.7-10.02-20.64-20.86-31.39-30.83
		C317.01,129.94,314.34,124.09,315.08,117.72z M400.91,117c4.51-14.18-2.91-21.21-14.71-28.18c-11.64-6.87-20.12-6.79-31.93-0.17
		c-12.23,6.86-16.24,14.51-16.18,28.31c0.06,13.28,4.22,20.34,15.63,27.03c11.92,6.99,20.72,7.59,32.62,0.09
		C397.1,137.28,405.42,131.29,400.91,117z"/>
	<path class="st0" d="M163.93,376.98c-0.15,32.11-25.89,56.72-57.03,55.84c-30.98-0.87-55.22-27.96-53.01-59.23
		c2.13-30.15,29.64-53.59,59.87-50.49c4.02,0.41,8.5,2.7,11.5,5.49c10.54,9.8,20.26,20.5,30.84,30.26
		C162.04,364.34,164.73,370.43,163.93,376.98z M140.39,380.26c-0.37-23.15,2.4-18.11-15.58-29.97c-11.38-7.51-20.08-7.02-31.83-0.28
		c-11.7,6.72-16.12,13.87-16.2,27.5c-0.08,13.94,4.3,21.41,16.4,28.19c11.46,6.41,19.8,7.06,31.25,0.07
		C135.81,398.82,144.4,392.43,140.39,380.26z"/>
	<path class="st0" d="M308.82,348.54c-18.48-18.6-37.65-37.89-56.44-56.79c10.39-10.38,21.28-21.25,31.91-31.86
		c18.75,18.72,37.97,37.91,56.77,56.67C330.4,327.13,319.52,337.92,308.82,348.54z"/>
	<path d="M400.91,117c4.51,14.3-3.81,20.28-14.58,27.07c-11.89,7.5-20.7,6.9-32.62-0.09c-11.41-6.69-15.58-13.75-15.63-27.03
		c-0.06-13.79,3.95-21.45,16.18-28.31c11.81-6.62,20.29-6.7,31.93,0.17C398.01,95.78,405.43,102.82,400.91,117z M386.55,116.77
		c-0.77-3.4-0.44-8.08-2.56-9.93c-3.98-3.46-9.19-6.74-14.25-7.44c-7.04-0.97-15.48,9.08-15.24,16.66
		c0.11,3.46-0.19,8.26,1.83,10.05c3.93,3.5,9.17,6.78,14.23,7.46C377.64,134.54,385.87,124.54,386.55,116.77z"/>
	<path d="M140.39,380.26c4.01,12.17-4.58,18.56-15.97,25.51c-11.45,6.99-19.78,6.34-31.25-0.07c-12.11-6.77-16.49-14.24-16.4-28.19
		c0.08-13.64,4.5-20.79,16.2-27.5c11.75-6.75,20.45-7.23,31.83,0.28C142.79,362.15,140.02,357.11,140.39,380.26z M125.19,378.29
		c-0.7-3.44-0.25-8.17-2.35-10.03c-3.94-3.5-9.14-6.72-14.22-7.56c-6.83-1.12-15.65,9.1-15.43,16.5c0.1,3.48-0.29,8.3,1.72,10.11
		c3.9,3.54,9.11,6.75,14.19,7.6C115.94,396.05,124.57,385.86,125.19,378.29z"/>
	<path class="st0" d="M386.55,116.77c-0.68,7.77-8.92,17.77-16,16.81c-5.06-0.69-10.29-3.97-14.23-7.46
		c-2.02-1.79-1.72-6.59-1.83-10.05c-0.24-7.58,8.19-17.63,15.24-16.66c5.06,0.7,10.27,3.97,14.25,7.44
		C386.12,108.69,385.78,113.37,386.55,116.77z"/>
	<path class="st0" d="M125.19,378.29c-0.62,7.57-9.25,17.76-16.09,16.62c-5.08-0.85-10.29-4.06-14.19-7.6
		c-2-1.81-1.61-6.63-1.72-10.11c-0.22-7.4,8.6-17.62,15.43-16.5c5.08,0.83,10.27,4.05,14.22,7.56
		C124.94,370.12,124.49,374.85,125.19,378.29z"/>
</g>
</svg>
