<?xml version="1.0" encoding="utf-8"?>
<!-- Generator: Adobe Illustrator 26.0.0, SVG Export Plug-In . SVG Version: 6.00 Build 0)  -->
<svg version="1.1" id="Слой_1" xmlns="http://www.w3.org/2000/svg" xmlns:xlink="http://www.w3.org/1999/xlink" x="0px" y="0px"
	 viewBox="0 0 500 500" style="enable-background:new 0 0 500 500;" xml:space="preserve">
<style type="text/css">
	.st0{fill:#FFFFFF;}
</style>
<g>
	<path d="M289.64,384.39c0-5.41-0.91-10.54,0.32-15.1c0.83-3.08,4.66-5.35,7.14-7.99c2.78,2.67,6.99,4.9,8,8.13
		c1.38,4.45,0.35,9.65,0.35,15.12c31.43-2.58,58.09-13.19,83.32-35.28c-4.6-3.48-9.36-5.83-12.11-9.63c-1.75-2.42-0.52-7-0.63-10.62
		c3.85-0.06,8.45-1.47,11.36,0.15c3.82,2.12,6.3,6.63,10.15,11.01c21.71-23.84,31.99-50.74,34.73-82.32
		c-5.61,0-10.82,1.04-15.27-0.35c-3.22-1-5.44-5.23-8.11-8.02c2.64-2.48,4.92-6.3,8.01-7.13c4.56-1.22,9.69-0.32,15.14-0.32
		c-2.34-31.46-13.1-58.03-35.13-83.51c-3.48,4.67-5.74,9.62-9.58,12.19c-2.63,1.76-7.47,0.21-11.32,0.14
		c0.11-3.61-1.1-8.19,0.65-10.62c2.75-3.81,7.51-6.18,12.16-9.73c-25.18-22.11-51.87-32.65-83.33-35.16c0,5.06,1.07,9.97-0.32,14.03
		c-1.22,3.57-5.2,6.19-7.96,9.22c-2.53-2.94-6.25-5.51-7.28-8.9c-1.27-4.18-0.3-9.04-0.3-16.43c-16.08,4.46-30.54,8.42-44.96,12.51
		c-2.2,0.62-4.26,1.8-6.31,2.87c-5.31,2.77-10.52,3.51-13.39-2.9c-2.68-5.98,1.49-9.06,6.34-11.41
		c22.76-11.05,46.82-16.17,72.05-15.13c84.05,3.45,148.96,74.13,144.92,157.63c-5.07,105.01-112.8,172.84-209.67,132.01
		c-2.74-1.15-6.16-1.85-7.91-3.91c-2.6-3.06-6.17-7.69-5.43-10.68c1.45-5.86,6.58-5.4,12.13-3.59c15,4.89,30.25,9.02,45.43,13.33
		C284.6,384.53,286.62,384.25,289.64,384.39z"/>
	<path d="M300.3,218.96c14.04,9.07,21.06-4.19,29.88-12.87c7.3-7.19,14.54-14.43,21.74-21.71c3.93-3.97,8.24-6.18,12.82-1.54
		c4.6,4.65,2.23,8.93-1.69,12.83c-10.77,10.72-21.38,21.6-32.3,32.18c-3.61,3.49-5.04,6.35-3.35,11.8
		c7.7,24.88-11.45,45.77-36.89,40.26c-6.22-1.35-10.88-1.99-15.76,3.35c-1.68,1.83-6.86,0.45-10.44,0.54
		c-0.08-3.82-1.79-9.13,0.07-11.14c4.22-4.55,4.45-8.21,2.77-13.89C260.93,237.64,276.38,218.24,300.3,218.96z M313.36,249.83
		c-0.07-8.9-6.84-15.12-16.22-14.91c-9.51,0.22-15.76,6.56-15.44,15.66c0.31,8.48,6.72,14.36,15.73,14.41
		C306.9,265.05,313.43,258.83,313.36,249.83z"/>
	<path d="M138.69,257.93c-25.12,0-50.23-0.04-75.35,0.03c-6.13,0.02-12.05-0.79-11.76-8.44c0.26-6.95,5.98-7.55,11.68-7.55
		c50.23,0.06,100.47,0.06,150.7,0c6.12-0.01,12.06,0.77,11.76,8.44c-0.27,6.94-5.97,7.57-11.68,7.55
		C188.92,257.88,163.81,257.93,138.69,257.93z"/>
	<path d="M167.44,194.34c19.19,0,38.37,0.04,57.56-0.03c5.73-0.02,11.2,0.66,11.28,7.88c0.08,7.19-5.28,8.1-11.07,8.09
		c-38.37-0.05-76.74-0.05-115.12,0c-5.95,0.01-11.7-1.62-10.51-8.29c0.54-3.06,6.62-7.17,10.32-7.31
		C129.05,193.94,148.25,194.34,167.44,194.34z"/>
	<path d="M168.46,289.67c18.86,0,37.71,0.04,56.57-0.03c5.73-0.02,11.2,0.69,11.26,7.9c0.06,7.19-5.31,8.08-11.1,8.07
		c-38.37-0.05-76.74-0.05-115.12,0c-5.96,0.01-11.69-1.65-10.49-8.32c0.55-3.07,6.64-7.15,10.34-7.29
		C129.41,289.28,148.94,289.67,168.46,289.67z"/>
	<path d="M196.32,162.59c-12.91,0-25.85,0.56-38.7-0.35c-3.78-0.27-9.82-4.21-10.38-7.28c-1.22-6.68,4.51-8.34,10.48-8.33
		c26.47,0.07,52.96-0.26,79.42,0.36c3.66,0.09,9.7,4.2,10.3,7.29c1.33,6.82-4.51,8.35-10.41,8.32
		C223.45,162.55,209.88,162.59,196.32,162.59z"/>
	<path d="M197.35,353.26c-13.24,0-26.51,0.55-39.69-0.34c-3.79-0.26-9.85-4.17-10.42-7.24c-1.25-6.67,4.46-8.38,10.43-8.37
		c26.47,0.07,52.96-0.26,79.42,0.36c3.67,0.09,9.72,4.15,10.34,7.25c1.36,6.8-4.45,8.39-10.37,8.36
		C223.83,353.21,210.59,353.26,197.35,353.26z"/>
	<path class="st0" d="M313.36,249.83c0.07,9-6.47,15.23-15.93,15.17c-9.01-0.06-15.42-5.93-15.73-14.41
		c-0.33-9.1,5.92-15.44,15.44-15.66C306.52,234.71,313.29,240.92,313.36,249.83z"/>
</g>
</svg>
