<?xml version="1.0" encoding="utf-8"?>
<!-- Generator: Adobe Illustrator 26.0.0, SVG Export Plug-In . SVG Version: 6.00 Build 0)  -->
<svg version="1.1" id="Слой_1" xmlns="http://www.w3.org/2000/svg" xmlns:xlink="http://www.w3.org/1999/xlink" x="0px" y="0px"
	 viewBox="0 0 500 500" style="enable-background:new 0 0 500 500;" xml:space="preserve">
<style type="text/css">
	.st0{fill:#0077FF;}
	.st1{fill:#FDFDFE;}
	.st2{fill:#25B3E8;}
	.st3{fill:#FBFCFD;}
	.st4{fill:#D2E6F1;}
	.st5{fill:#26AFE4;}
</style>
<g>
	<path class="st0" d="M200.05,277.81c0.07-28.16,1.04-56.29,4.89-84.19c3.01-21.75,20.3-37.3,42.22-39.44
		c32.84-3.22,65.75-4.84,98.75-3.97c22.13,0.58,44.29,1.42,66.22,4.64c22.15,3.26,37.46,20.13,39.7,42.53
		c3.32,33.34,4.87,66.76,3.92,100.26c-0.61,21.46-1.42,42.96-4.57,64.22c-3.33,22.5-20.26,37.78-42.81,39.99
		c-33.01,3.23-66.1,4.81-99.26,3.9c-21.8-0.6-43.62-1.45-65.21-4.62c-21.92-3.21-37.49-20.08-39.65-42.04
		C201.6,332.06,199.88,304.98,200.05,277.81z M342.01,254.97c0-4.83,0.07-9.66-0.02-14.48c-0.09-4.43-2.23-7.17-6.82-7.75
		c-8.95-1.14-17.93-0.94-26.89-0.29c-1.8,0.13-3.57,0.8-5.06,1.96c-3.02,2.35-2.86,4.05,0.81,5.34c3.37,1.18,5.54,3.4,5.79,6.79
		c0.57,7.8,1.01,15.65-0.09,23.43c-0.3,2.11-0.07,5.14-2.86,5.9c-2.91,0.8-4.36-1.85-6.08-3.57c-0.82-0.82-1.44-1.82-2.14-2.76
		c-6.18-8.32-11.23-17.29-15.01-26.95c-1.79-4.58-4.79-6.86-9.85-6.74c-6.82,0.17-13.65-0.11-20.48-0.04
		c-4.97,0.06-6.41,2.09-4.44,6.59c9.07,20.8,19.35,40.95,33.95,58.5c13.32,16.01,30.38,23.78,51.42,22.38
		c4.74-0.32,7.44-2.07,7.88-7.05c0.26-2.96,0.98-5.9,1.75-8.79c1.44-5.38,4.4-6.44,8.6-2.79c3.5,3.05,6.77,6.43,9.73,10
		c5.52,6.65,12.35,9.74,21.01,9.25c5.14-0.29,10.32,0.01,15.48-0.01c3.42-0.01,6.82-0.36,8.63-3.81c1.77-3.38-0.35-6.03-2.1-8.68
		c-5.36-8.14-12.53-14.64-19.38-21.44c-5.01-4.98-5.22-6.64-1.15-12.46c4.48-6.41,9.26-12.61,13.83-18.95
		c3.3-4.59,6.65-9.16,8.44-14.63c1.87-5.71,0.53-7.84-5.44-7.95c-7.99-0.16-16,0.23-23.97-0.16c-5.26-0.26-7.83,1.97-9.59,6.66
		c-4.25,11.3-10.3,21.6-18.53,30.53c-1.29,1.4-2.53,3.57-4.89,2.56c-2.05-0.88-2.44-3.13-2.49-5.12
		C341.94,265.29,342.02,260.13,342.01,254.97z"/>
	<path class="st1" d="M342.02,254.97c0.01,5.16-0.08,10.32,0.05,15.47c0.05,2,0.44,4.24,2.49,5.12c2.36,1.01,3.59-1.16,4.89-2.56
		c8.22-8.93,14.27-19.23,18.53-30.53c1.77-4.69,4.33-6.92,9.59-6.66c7.97,0.39,15.98,0,23.97,0.16c5.97,0.12,7.31,2.25,5.44,7.95
		c-1.79,5.47-5.14,10.05-8.44,14.63c-4.57,6.35-9.35,12.55-13.83,18.95c-4.07,5.82-3.87,7.48,1.15,12.46
		c6.85,6.8,14.02,13.3,19.38,21.44c1.75,2.65,3.87,5.3,2.1,8.68c-1.81,3.45-5.22,3.79-8.63,3.81c-5.16,0.02-10.34-0.28-15.48,0.01
		c-8.66,0.49-15.49-2.59-21.01-9.25c-2.96-3.57-6.23-6.96-9.73-10c-4.2-3.66-7.16-2.59-8.6,2.79c-0.77,2.88-1.49,5.83-1.75,8.79
		c-0.44,4.98-3.14,6.74-7.88,7.05c-21.04,1.4-38.11-6.36-51.42-22.38c-14.6-17.56-24.88-37.7-33.95-58.5
		c-1.97-4.51-0.53-6.54,4.44-6.59c6.82-0.08,13.66,0.21,20.48,0.04c5.07-0.13,8.07,2.16,9.85,6.74c3.77,9.65,8.82,18.62,15.01,26.95
		c0.69,0.93,1.32,1.94,2.14,2.76c1.71,1.72,3.17,4.37,6.08,3.57c2.79-0.77,2.56-3.8,2.86-5.9c1.11-7.78,0.66-15.63,0.09-23.43
		c-0.25-3.39-2.41-5.6-5.79-6.79c-3.67-1.29-3.82-2.99-0.81-5.34c1.49-1.16,3.27-1.83,5.06-1.96c8.97-0.65,17.94-0.85,26.89,0.29
		c4.58,0.58,6.73,3.32,6.82,7.75C342.08,245.32,342.01,250.15,342.02,254.97z"/>
</g>
<g>
	<path class="st2" d="M312.74,176.59c-4.49-24.26-15.06-45.68-32.44-63.48c-18.02-19.74-40.12-32.32-66.31-37.7
		c-8.93-2.14-18.1-2.81-27.17-2.96c-23.85-0.37-46.15,5.89-66.33,18.58c-36.81,23.15-57.37,56.67-61.09,99.93
		c-2.09,24.36,2.8,47.65,14.8,69.21c3.38,7.43,8.05,14.07,13.22,20.31c11.27,13.58,24.15,25.25,40.35,32.8
		c0.54,0.37,1.04,0.82,1.62,1.11c27.89,13.91,57.1,17.49,87.37,10.21C283.31,308.62,325.21,244.02,312.74,176.59z M227.02,242.46
		c-1.59,7.96-6.17,9.67-12.77,4.7c-7.69-5.8-15.4-11.58-23.09-17.37c-0.09,0.55-0.17,1.1-0.26,1.65c-4,3.83-7.99,7.66-11.99,11.49
		c0.49,2.2-0.3,4.01-1.47,5.69c1.16-1.68,1.96-3.49,1.47-5.69c-8.53,7.26-8.7,8.15-12.82-4.04c-2.71-8.03-4.97-16.21-7.5-24.3
		c-0.56-1.78-0.94-3.53-0.54-5.38c-7.53-2.6-15.06-5.22-22.6-7.78c-2.76-0.93-5.8-1.95-5.84-5.27c-0.04-3.2,3.13-3.96,5.58-4.92
		c33.24-13.05,66.49-26.08,99.73-39.1c1.08-0.42,2.18-0.82,3.3-1.12c4.88-1.31,5.97-0.4,6.1,5.05c0,0,0,0,0,0
		C238.55,184.85,232.76,213.65,227.02,242.46z"/>
	<path class="st3" d="M158.05,209.19c-7.53-2.6-15.06-5.22-22.6-7.78c-2.76-0.93-5.8-1.95-5.84-5.27c-0.04-3.2,3.13-3.96,5.58-4.92
		c33.24-13.05,66.49-26.08,99.73-39.1c1.08-0.42,2.18-0.82,3.3-1.12c4.88-1.31,5.97-0.4,6.1,5.05c-5.77,28.8-11.55,57.6-17.29,86.41
		c-1.59,7.96-6.17,9.67-12.77,4.7c-7.69-5.8-15.4-11.58-23.09-17.37c-4.45-3.9-8.98-7.7-14.15-10.64l0.04,0.03
		c-0.67-0.71-1.35-1.42-2.02-2.12c0.63-0.76,1.18-1.62,1.91-2.27c15.64-14.05,31.31-28.06,46.92-42.15
		c1.34-1.21,4.16-2.49,2.51-4.58c-1.24-1.58-3.1,0.93-4.76,1.39c-0.15,0.04-0.28,0.17-0.42,0.26
		c-12.28,7.87-24.43,15.93-36.87,23.54C175.58,198.59,167.36,204.8,158.05,209.19z"/>
	<path class="st4" d="M158.05,209.19c9.31-4.39,17.53-10.6,26.27-15.95c12.44-7.6,24.59-15.67,36.87-23.54
		c0.14-0.09,0.27-0.22,0.42-0.26c1.66-0.46,3.52-2.97,4.76-1.39c1.65,2.09-1.17,3.37-2.51,4.58c-15.61,14.08-31.28,28.1-46.92,42.15
		c-0.73,0.66-1.28,1.51-1.91,2.27c-1.34,2.62,0.18,2.53,2.02,2.12c0,0-0.04-0.03-0.04-0.03c-0.55,2.2,1.44,2.71,2.59,3.63
		c3.7,2.96,7.53,5.78,11.3,8.65c-4,3.83-7.99,7.66-11.99,11.49c-8.53,7.26-8.7,8.15-12.82-4.04c-2.71-8.03-4.97-16.21-7.5-24.3
		C158.04,212.79,157.65,211.05,158.05,209.19z"/>
	<path class="st5" d="M190.9,231.44c-3.78-2.87-7.6-5.69-11.3-8.65c-1.15-0.92-3.14-1.43-2.59-3.63c5.17,2.94,9.7,6.73,14.15,10.64
		C191.07,230.34,190.99,230.89,190.9,231.44z"/>
	<path class="st5" d="M177.05,219.19c-1.84,0.4-3.36,0.5-2.02-2.12C175.7,217.77,176.38,218.48,177.05,219.19z"/>
</g>
</svg>
